<svg xmlns="http://www.w3.org/2000/svg" width="1200" height="630" viewBox="0 0 1200 630"><rect width="1200" height="630" fill="#EFEBE4"/><g transform="translate(107.28000000000003 165) scale(0.29296875)">
  <rect x="192" y="96" width="640" height="832" rx="76" fill="#434345"/>
  <rect x="256" y="176" width="512" height="624" rx="14" fill="#E1DDD6"/>
  <rect x="452" y="848" width="120" height="28" rx="14" fill="#CECAC2"/>
  <circle cx="352" cy="468" r="34" fill="#434345"/>
  <path d="M318 364 A138 138 0 0 1 456 502 M318 266 A236 236 0 0 1 554 502"
        fill="none" stroke="#434345" stroke-width="50" stroke-linecap="round"/>
  
  <rect x="318" y="590" width="40" height="40" rx="4" fill="#8E8D8B"/>
  <rect x="384" y="603" width="300" height="14" rx="7" fill="#8E8D8B"/>
  <rect x="318" y="660" width="40" height="40" rx="4" fill="#8E8D8B"/>
  <rect x="384" y="673" width="260" height="14" rx="7" fill="#8E8D8B"/>
  <rect x="318" y="730" width="40" height="40" rx="4" fill="#8E8D8B"/>
  <rect x="384" y="743" width="280" height="14" rx="7" fill="#8E8D8B"/></g><path fill="#111111" d="M493.32 320.52L495.60 322.92Q494.64 324.96 492.54 327.06Q490.44 329.16 487.38 330.78Q484.32 332.40 480.30 333.42Q476.28 334.44 471.60 334.44L471.60 334.44Q464.16 334.44 458.40 332.22Q452.64 330 448.80 325.86Q444.96 321.72 442.98 315.96Q441.00 310.20 441.00 303L441.00 303Q441.00 287.64 449.04 279.60Q457.08 271.56 471.36 271.56L471.36 271.56Q477.48 271.56 482.82 273.24Q488.16 274.92 491.70 278.76Q495.24 282.60 496.62 288.84Q498 295.08 496.44 304.08L496.44 304.08L459.60 304.08Q459.72 313.56 464.46 319.20Q469.20 324.84 478.44 324.84L478.44 324.84Q482.40 324.84 486.66 323.64Q490.92 322.44 493.32 320.52L493.32 320.52ZM470.88 278.40L470.88 278.40Q468.48 278.40 466.62 279.24Q464.76 280.08 463.38 282.30Q462 284.52 461.16 288.30Q460.32 292.08 459.96 297.84L459.96 297.84L479.28 297.84Q480.12 288.48 478.20 283.44Q476.28 278.40 470.88 278.40ZM538.56 328.32L538.56 333L505.44 333L505.44 328.32Q507.24 327.36 509.16 326.70Q511.08 326.04 513.36 325.44L513.36 325.44L513.36 281.52L505.44 280.56L505.44 275.88Q507.24 275.16 509.94 274.44Q512.64 273.72 515.64 273.18Q518.64 272.64 521.52 272.22Q524.40 271.80 526.56 271.56L526.56 271.56L530.64 271.56L530.64 325.44Q533.04 326.04 534.96 326.70Q536.88 327.36 538.56 328.32L538.56 328.32ZM511.32 253.32L511.32 253.32Q511.32 249.12 514.20 246.72Q517.08 244.32 521.64 244.32L521.64 244.32Q526.20 244.32 529.08 246.72Q531.96 249.12 531.96 253.32L531.96 253.32Q531.96 257.40 529.08 259.80Q526.20 262.20 521.64 262.20L521.64 262.20Q517.08 262.20 514.20 259.80Q511.32 257.40 511.32 253.32ZM617.40 328.32L617.40 333L585.60 333L585.60 328.32Q587.16 327.48 588.66 326.82Q590.16 326.16 592.20 325.44L592.20 325.44L592.20 297.24Q592.20 289.68 590.04 285.42Q587.88 281.16 582.36 281.16L582.36 281.16Q577.80 281.16 574.50 284.10Q571.20 287.04 569.52 292.08L569.52 292.08L569.52 325.44Q571.44 325.92 572.94 326.58Q574.44 327.24 576.12 328.32L576.12 328.32L576.12 333L544.32 333L544.32 328.32Q547.32 326.76 552.24 325.44L552.24 325.44L552.24 281.52L544.32 280.56L544.32 275.88Q545.88 275.16 548.40 274.50Q550.92 273.84 553.86 273.24Q556.80 272.64 559.86 272.22Q562.92 271.80 565.44 271.56L565.44 271.56L569.52 271.56L569.52 283.92L569.64 283.92Q572.16 278.88 577.20 275.22Q582.24 271.56 589.44 271.56L589.44 271.56Q594.12 271.56 597.84 272.70Q601.56 273.84 604.14 276.72Q606.72 279.60 608.10 284.46Q609.48 289.32 609.48 296.76L609.48 296.76L609.48 325.44Q614.28 326.28 617.40 328.32L617.40 328.32ZM657.48 277.68L657.48 273L685.56 273L685.56 277.68Q683.28 278.64 681.30 279.36Q679.32 280.08 676.92 280.56L676.92 280.56Q675.12 282.96 673.02 285.30Q670.92 287.64 668.82 289.80Q666.72 291.96 664.80 293.94Q662.88 295.92 661.32 297.48L661.32 297.48Q663.12 299.88 665.52 303.24Q667.92 306.60 670.68 310.38Q673.44 314.16 676.50 318.06Q679.56 321.96 682.68 325.44L682.68 325.44L688.80 328.32L688.80 333L668.52 333L665.28 330.12Q662.52 326.40 660.42 323.16Q658.32 319.92 656.64 316.92Q654.96 313.92 653.40 311.10Q651.84 308.28 650.28 305.52L650.28 305.52L646.32 304.32L646.32 325.44Q648.36 325.80 650.04 326.52Q651.72 327.24 653.64 328.32L653.64 328.32L653.64 333L621.12 333L621.12 328.32Q625.08 326.40 629.04 325.44L629.04 325.44L629.04 252.72L619.92 251.76L619.92 247.08Q621.60 246.36 624.48 245.64Q627.36 244.92 630.60 244.38Q633.84 243.84 636.96 243.42Q640.08 243 642.24 242.76L642.24 242.76L646.32 242.76L646.32 299.04L649.44 299.04Q653.40 294.84 656.82 289.80Q660.24 284.76 662.88 280.56L662.88 280.56Q661.32 280.08 660.06 279.36Q658.80 278.64 657.48 277.68L657.48 277.68ZM740.04 286.80L723.60 286.80Q722.16 287.52 720.24 289.20Q718.32 290.88 716.76 294.72L716.76 294.72L716.76 325.44Q719.16 325.68 721.56 326.34Q723.96 327 726.36 328.32L726.36 328.32L726.36 333L691.56 333L691.56 328.32Q693.72 327.12 695.64 326.52Q697.56 325.92 699.48 325.44L699.48 325.44L699.48 281.52L691.56 280.56L691.56 275.88Q693.48 275.04 696.30 274.32Q699.12 273.60 702.12 273.06Q705.12 272.52 707.94 272.16Q710.76 271.80 712.68 271.56L712.68 271.56L716.76 271.56L716.76 287.52L717.24 287.52Q718.20 284.88 720.06 282Q721.92 279.12 724.44 276.72Q726.96 274.32 729.96 272.88Q732.96 271.44 736.20 271.56L736.20 271.56Q737.52 273.24 738.48 276.30Q739.44 279.36 740.04 282.12L740.04 282.12L740.04 286.80ZM796.56 320.52L798.84 322.92Q797.88 324.96 795.78 327.06Q793.68 329.16 790.62 330.78Q787.56 332.40 783.54 333.42Q779.52 334.44 774.84 334.44L774.84 334.44Q767.40 334.44 761.64 332.22Q755.88 330 752.04 325.86Q748.20 321.72 746.22 315.96Q744.24 310.20 744.24 303L744.24 303Q744.24 287.64 752.28 279.60Q760.32 271.56 774.60 271.56L774.60 271.56Q780.72 271.56 786.06 273.24Q791.40 274.92 794.94 278.76Q798.48 282.60 799.86 288.84Q801.24 295.08 799.68 304.08L799.68 304.08L762.84 304.08Q762.96 313.56 767.70 319.20Q772.44 324.84 781.68 324.84L781.68 324.84Q785.64 324.84 789.90 323.64Q794.16 322.44 796.56 320.52L796.56 320.52ZM774.12 278.40L774.12 278.40Q771.72 278.40 769.86 279.24Q768.00 280.08 766.62 282.30Q765.24 284.52 764.40 288.30Q763.56 292.08 763.20 297.84L763.20 297.84L782.52 297.84Q783.36 288.48 781.44 283.44Q779.52 278.40 774.12 278.40ZM861.36 315.60L861.36 315.60Q861.36 318.24 861.42 320.16Q861.48 322.08 861.72 324.24L861.72 324.24L870 325.44L870 329.64Q868.56 330.36 866.10 331.08Q863.64 331.80 860.94 332.46Q858.24 333.12 855.60 333.54Q852.96 333.96 850.92 334.20L850.92 334.20L846.84 334.20Q845.64 331.44 845.40 328.68Q845.16 325.92 845.04 321.96L845.04 321.96L844.44 321.96Q843.84 324.36 842.40 326.58Q840.96 328.80 838.74 330.54Q836.52 332.28 833.52 333.36Q830.52 334.44 826.80 334.44L826.80 334.44Q822.84 334.44 819.48 333.24Q816.12 332.04 813.60 329.88Q811.08 327.72 809.64 324.66Q808.20 321.60 808.20 317.76L808.20 317.76Q808.20 312.36 810.24 308.88Q812.28 305.40 816.66 303.18Q821.04 300.96 827.94 299.88Q834.84 298.80 844.68 298.32L844.68 298.32Q845.64 288 843.84 283.20Q842.04 278.40 836.04 278.40L836.04 278.40Q832.32 278.40 829.20 279.60L829.20 279.60L823.56 294L818.28 294Q817.32 292.56 816.42 290.70Q815.52 288.84 814.74 286.74Q813.96 284.64 813.42 282.48Q812.88 280.32 812.64 278.28L812.64 278.28Q817.20 275.16 824.40 273.36Q831.60 271.56 839.64 271.56L839.64 271.56Q846.48 271.56 850.80 273.06Q855.12 274.56 857.58 277.14Q860.04 279.72 861 283.20Q861.96 286.68 861.96 290.64L861.96 290.64Q861.96 297.84 861.66 303.66Q861.36 309.48 861.36 315.60ZM834.36 324.84L834.36 324.84Q836.88 324.84 838.68 323.88Q840.48 322.92 841.74 321.60Q843 320.28 843.66 318.72Q844.32 317.16 844.68 315.96L844.68 315.96L844.68 303.96Q839.04 304.08 835.44 304.68Q831.84 305.28 829.80 306.66Q827.76 308.04 826.98 310.14Q826.20 312.24 826.20 315.24L826.20 315.24Q826.20 319.80 828.36 322.32Q830.52 324.84 834.36 324.84ZM916.92 321.12L916.44 321.12Q915.84 323.76 914.28 326.16Q912.72 328.56 910.56 330.42Q908.40 332.28 905.64 333.36Q902.88 334.44 899.76 334.44L899.76 334.44Q887.88 334.44 881.70 326.94Q875.52 319.44 875.52 303.96L875.52 303.96Q875.52 296.04 877.68 290.10Q879.84 284.16 883.74 280.08Q887.64 276 893.16 273.96Q898.68 271.92 905.40 271.92L905.40 271.92Q907.56 271.92 909.06 272.04Q910.56 272.16 911.82 272.34Q913.08 272.52 914.22 272.94Q915.36 273.36 916.80 273.84L916.80 273.84L916.80 252.72L907.68 251.76L907.68 247.08Q909.36 246.36 912.30 245.76Q915.24 245.16 918.48 244.62Q921.72 244.08 924.84 243.60Q927.96 243.12 930.00 242.76L930.00 242.76L934.08 242.76L934.08 324.48L942.00 325.44L942.00 329.64Q940.32 330.48 937.68 331.20Q935.04 331.92 932.16 332.52Q929.28 333.12 926.58 333.54Q923.88 333.96 922.08 334.20L922.08 334.20L918.00 334.20L916.92 321.12ZM905.52 324.84L905.52 324.84Q909.72 324.84 912.60 322.20Q915.48 319.56 916.80 313.20L916.80 313.20L916.80 280.92Q915.24 279.96 912.90 279.36Q910.56 278.76 907.08 278.76L907.08 278.76Q900.12 278.76 897.12 285.06Q894.12 291.36 894.12 303.36L894.12 303.36Q894.12 313.08 896.76 318.96Q899.40 324.84 905.52 324.84ZM999.72 320.52L1002.00 322.92Q1001.04 324.96 998.94 327.06Q996.84 329.16 993.78 330.78Q990.72 332.40 986.70 333.42Q982.68 334.44 978.00 334.44L978.00 334.44Q970.56 334.44 964.80 332.22Q959.04 330 955.20 325.86Q951.36 321.72 949.38 315.96Q947.40 310.20 947.40 303L947.40 303Q947.40 287.64 955.44 279.60Q963.48 271.56 977.76 271.56L977.76 271.56Q983.88 271.56 989.22 273.24Q994.56 274.92 998.10 278.76Q1001.64 282.60 1003.02 288.84Q1004.40 295.08 1002.84 304.08L1002.84 304.08L966.00 304.08Q966.12 313.56 970.86 319.20Q975.60 324.84 984.84 324.84L984.84 324.84Q988.80 324.84 993.06 323.64Q997.32 322.44 999.72 320.52L999.72 320.52ZM977.28 278.40L977.28 278.40Q974.88 278.40 973.02 279.24Q971.16 280.08 969.78 282.30Q968.40 284.52 967.56 288.30Q966.72 292.08 966.36 297.84L966.36 297.84L985.68 297.84Q986.52 288.48 984.60 283.44Q982.68 278.40 977.28 278.40ZM1059.36 286.80L1042.92 286.80Q1041.48 287.52 1039.56 289.20Q1037.64 290.88 1036.08 294.72L1036.08 294.72L1036.08 325.44Q1038.48 325.68 1040.88 326.34Q1043.28 327 1045.68 328.32L1045.68 328.32L1045.68 333L1010.88 333L1010.88 328.32Q1013.04 327.12 1014.96 326.52Q1016.88 325.92 1018.80 325.44L1018.80 325.44L1018.80 281.52L1010.88 280.56L1010.88 275.88Q1012.80 275.04 1015.62 274.32Q1018.44 273.60 1021.44 273.06Q1024.44 272.52 1027.26 272.16Q1030.08 271.80 1032.00 271.56L1032.00 271.56L1036.08 271.56L1036.08 287.52L1036.56 287.52Q1037.52 284.88 1039.38 282Q1041.24 279.12 1043.76 276.72Q1046.28 274.32 1049.28 272.88Q1052.28 271.44 1055.52 271.56L1055.52 271.56Q1056.84 273.24 1057.80 276.30Q1058.76 279.36 1059.36 282.12L1059.36 282.12L1059.36 286.80Z"/><path fill="#434345" d="M443.94 389.13L443.94 390L437.28 390L437.28 389.13Q438.36 388.65 439.44 388.41L439.44 388.41L447.03 368.64L447.90 368.64L455.49 388.41Q456.09 388.53 456.68 388.68Q457.26 388.83 457.77 389.13L457.77 389.13L457.77 390L450.09 390L450.09 389.13Q450.69 388.89 451.32 388.71Q451.95 388.53 452.55 388.41L452.55 388.41L450.51 382.92L443.34 382.92L441.36 388.41Q442.62 388.59 443.94 389.13L443.94 389.13ZM446.25 375.06L443.94 381.36L450 381.36L447.63 375L447.06 372.42L447 372.42L446.25 375.06ZM476.91 387.48L477.30 387.90Q476.76 388.95 475.55 389.65Q474.33 390.36 472.71 390.36L472.71 390.36Q470.94 390.36 469.64 389.81Q468.33 389.25 467.46 388.21Q466.59 387.18 466.16 385.73Q465.72 384.27 465.72 382.50L465.72 382.50Q465.72 378.69 467.58 376.67Q469.44 374.64 472.65 374.64L472.65 374.64Q474.12 374.64 475.28 374.89Q476.43 375.15 477.24 375.57L477.24 375.57Q477.15 376.56 476.91 377.79Q476.67 379.02 476.31 379.83L476.31 379.83L475.50 379.83L474.24 376.26Q474.03 376.11 473.76 376.04Q473.49 375.96 472.86 375.96L472.86 375.96Q470.82 375.96 469.71 377.44Q468.60 378.93 468.60 382.47L468.60 382.47Q468.60 383.61 468.92 384.69Q469.23 385.77 469.88 386.63Q470.52 387.48 471.50 387.99Q472.47 388.50 473.76 388.50L473.76 388.50Q474.81 388.50 475.59 388.20Q476.37 387.90 476.91 387.48L476.91 387.48ZM490.77 386.07L490.77 386.07Q490.77 386.73 490.80 387.21Q490.83 387.69 490.86 388.23L490.86 388.23L492.93 388.53L492.93 389.16Q492.18 389.55 491.27 389.85Q490.35 390.15 489.51 390.30L489.51 390.30L488.76 390.30Q488.46 389.61 488.40 388.79Q488.34 387.96 488.31 386.97L488.31 386.97L488.16 386.97Q488.04 387.57 487.70 388.19Q487.35 388.80 486.80 389.28Q486.24 389.76 485.49 390.06Q484.74 390.36 483.78 390.36L483.78 390.36Q481.95 390.36 480.80 389.25Q479.64 388.14 479.64 386.34L479.64 386.34Q479.64 384.96 480.20 384.07Q480.75 383.19 481.83 382.68Q482.91 382.17 484.50 381.94Q486.09 381.72 488.19 381.60L488.19 381.60Q488.31 380.31 488.27 379.27Q488.22 378.24 487.94 377.50Q487.65 376.77 487.10 376.37Q486.54 375.96 485.64 375.96L485.64 375.96Q485.22 375.96 484.70 376.00Q484.17 376.05 483.66 376.26L483.66 376.26L482.25 379.86L481.47 379.86Q481.17 378.96 480.95 378Q480.72 377.04 480.66 376.11L480.66 376.11Q481.80 375.42 483.20 375.03Q484.59 374.64 486.30 374.64L486.30 374.64Q487.83 374.64 488.75 375.07Q489.66 375.51 490.14 376.20Q490.62 376.89 490.77 377.73Q490.92 378.57 490.92 379.41L490.92 379.41Q490.92 381.21 490.85 382.88Q490.77 384.54 490.77 386.07ZM484.98 388.50L484.98 388.50Q485.73 388.50 486.30 388.20Q486.87 387.90 487.26 387.48Q487.65 387.06 487.89 386.63Q488.13 386.19 488.22 385.89L488.22 385.89L488.22 382.74Q486.48 382.74 485.37 382.92Q484.26 383.10 483.63 383.49Q483.00 383.88 482.76 384.46Q482.52 385.05 482.52 385.80L482.52 385.80Q482.52 387.09 483.18 387.80Q483.84 388.50 484.98 388.50ZM501.51 389.25L501.51 390L494.85 390L494.85 389.25Q495.84 388.77 496.83 388.53L496.83 388.53L496.83 369.54L494.55 369.30L494.55 368.52Q495.33 368.16 496.50 367.89Q497.67 367.62 498.78 367.44L498.78 367.44L499.53 367.44L499.53 388.53Q500.52 388.77 501.51 389.25L501.51 389.25ZM519.09 389.25L519.09 390L512.67 390L512.67 389.25Q512.97 389.07 513.41 388.88Q513.84 388.68 514.44 388.53L514.44 388.53L514.44 381.60Q514.44 380.40 514.34 379.44Q514.23 378.48 513.95 377.83Q513.66 377.19 513.12 376.85Q512.58 376.50 511.71 376.50L511.71 376.50Q511.05 376.50 510.50 376.77Q509.94 377.04 509.51 377.49Q509.07 377.94 508.76 378.51Q508.44 379.08 508.26 379.71L508.26 379.71L508.26 388.53Q508.74 388.68 509.18 388.85Q509.61 389.01 510.03 389.25L510.03 389.25L510.03 390L503.58 390L503.58 389.25Q504.00 389.04 504.51 388.86Q505.02 388.68 505.56 388.53L505.56 388.53L505.56 376.74L503.58 376.50L503.58 375.72Q504.54 375.30 505.55 375.05Q506.55 374.79 507.51 374.64L507.51 374.64L508.26 374.64L508.26 378.03L508.29 378.03Q508.77 376.62 509.93 375.63Q511.08 374.64 512.79 374.64L512.79 374.64Q513.51 374.64 514.17 374.79Q514.83 374.94 515.40 375.35Q515.97 375.75 516.36 376.47Q516.75 377.19 516.93 378.33L516.93 378.33Q517.47 376.68 518.67 375.66Q519.87 374.64 521.67 374.64L521.67 374.64Q522.78 374.64 523.61 374.93Q524.43 375.21 524.97 375.93Q525.51 376.65 525.76 377.88Q526.02 379.11 526.02 381L526.02 381L526.02 388.53Q527.04 388.71 528 389.25L528 389.25L528 390L521.55 390L521.55 389.25Q522.45 388.77 523.32 388.53L523.32 388.53L523.32 381.06Q523.32 379.98 523.22 379.14Q523.11 378.30 522.81 377.71Q522.51 377.13 521.97 376.81Q521.43 376.50 520.53 376.50L520.53 376.50Q519.09 376.50 518.30 377.49Q517.50 378.48 517.14 380.01L517.14 380.01L517.14 388.53Q518.19 388.83 519.09 389.25L519.09 389.25ZM530.67 395.37L530.07 394.47Q530.64 394.26 531.15 393.82Q531.66 393.39 532.04 392.85Q532.41 392.31 532.61 391.67Q532.80 391.02 532.74 390.39L532.74 390.39Q532.38 390.06 531.78 389.73Q531.18 389.40 530.73 389.25L530.73 389.25Q530.58 388.68 530.72 388.14Q530.85 387.60 531.12 387.18Q531.39 386.76 531.74 386.50Q532.08 386.25 532.41 386.22L532.41 386.22Q533.46 386.37 534.26 387.15Q535.05 387.93 535.05 389.49L535.05 389.49Q535.05 390.33 534.75 391.25Q534.45 392.16 533.88 392.97Q533.31 393.78 532.50 394.43Q531.69 395.07 530.67 395.37L530.67 395.37ZM544.35 382.50L544.35 382.50Q544.35 380.61 544.85 379.15Q545.34 377.70 546.27 376.69Q547.20 375.69 548.50 375.17Q549.81 374.64 551.40 374.64L551.40 374.64Q553.26 374.64 554.61 375.21Q555.96 375.78 556.82 376.81Q557.67 377.85 558.08 379.29Q558.48 380.73 558.48 382.50L558.48 382.50Q558.48 386.28 556.56 388.32Q554.64 390.36 551.40 390.36L551.40 390.36Q549.60 390.36 548.28 389.81Q546.96 389.25 546.09 388.21Q545.22 387.18 544.78 385.73Q544.35 384.27 544.35 382.50ZM547.23 382.50L547.23 382.50Q547.23 383.85 547.49 385.05Q547.74 386.25 548.29 387.13Q548.85 388.02 549.75 388.53Q550.65 389.04 551.91 389.04L551.91 389.04Q553.53 389.04 554.57 387.45Q555.60 385.86 555.60 382.50L555.60 382.50Q555.60 381.12 555.35 379.94Q555.09 378.75 554.55 377.87Q554.01 376.98 553.17 376.47Q552.33 375.96 551.16 375.96L551.16 375.96Q549.39 375.96 548.31 377.55Q547.23 379.14 547.23 382.50ZM568.89 367.44L568.89 367.44Q569.16 367.44 569.52 367.47Q569.88 367.50 570.27 367.55Q570.66 367.59 571.02 367.67Q571.38 367.74 571.65 367.83L571.65 367.83Q571.56 368.82 571.39 369.68Q571.23 370.53 570.99 371.22L570.99 371.22L570.24 371.22L568.92 368.64Q568.05 368.64 567.44 368.82Q566.82 369 566.42 369.51Q566.01 370.02 565.82 370.98Q565.62 371.94 565.62 373.50L565.62 373.50L565.62 375L569.07 375L569.07 376.50L565.62 376.50L565.62 388.53Q567.18 388.71 568.50 389.25L568.50 389.25L568.50 390L560.94 390L560.94 389.25Q561.87 388.71 562.92 388.53L562.92 388.53L562.92 376.50L560.64 376.50L560.64 375.72Q561.69 375.06 562.92 374.73L562.92 374.73L562.92 373.68Q562.92 371.82 563.37 370.61Q563.82 369.39 564.63 368.69Q565.44 367.98 566.54 367.71Q567.63 367.44 568.89 367.44ZM579.15 367.44L579.15 367.44Q579.42 367.44 579.78 367.47Q580.14 367.50 580.53 367.55Q580.92 367.59 581.28 367.67Q581.64 367.74 581.91 367.83L581.91 367.83Q581.82 368.82 581.65 369.68Q581.49 370.53 581.25 371.22L581.25 371.22L580.50 371.22L579.18 368.64Q578.31 368.64 577.70 368.82Q577.08 369 576.68 369.51Q576.27 370.02 576.08 370.98Q575.88 371.94 575.88 373.50L575.88 373.50L575.88 375L579.33 375L579.33 376.50L575.88 376.50L575.88 388.53Q577.44 388.71 578.76 389.25L578.76 389.25L578.76 390L571.20 390L571.20 389.25Q572.13 388.71 573.18 388.53L573.18 388.53L573.18 376.50L570.90 376.50L570.90 375.72Q571.95 375.06 573.18 374.73L573.18 374.73L573.18 373.68Q573.18 371.82 573.63 370.61Q574.08 369.39 574.89 368.69Q575.70 367.98 576.80 367.71Q577.89 367.44 579.15 367.44ZM588.12 389.25L588.12 390L581.46 390L581.46 389.25Q582.45 388.77 583.44 388.53L583.44 388.53L583.44 369.54L581.16 369.30L581.16 368.52Q581.94 368.16 583.11 367.89Q584.28 367.62 585.39 367.44L585.39 367.44L586.14 367.44L586.14 388.53Q587.13 388.77 588.12 389.25L588.12 389.25ZM597.15 389.25L597.15 390L590.49 390L590.49 389.25Q590.94 389.01 591.42 388.85Q591.90 388.68 592.47 388.53L592.47 388.53L592.47 376.74L590.49 376.50L590.49 375.72Q591.36 375.36 592.38 375.09Q593.40 374.82 594.42 374.64L594.42 374.64L595.17 374.64L595.17 388.53Q595.77 388.68 596.25 388.85Q596.73 389.01 597.15 389.25L597.15 389.25ZM591.90 369.90L591.90 369.90Q591.90 369.09 592.42 368.61Q592.95 368.13 593.82 368.13L593.82 368.13Q594.69 368.13 595.20 368.61Q595.71 369.09 595.71 369.90L595.71 369.90Q595.71 370.71 595.20 371.18Q594.69 371.64 593.82 371.64L593.82 371.64Q592.95 371.64 592.42 371.18Q591.90 370.71 591.90 369.90ZM615.60 389.25L615.60 390L609.15 390L609.15 389.25Q609.96 388.83 610.92 388.53L610.92 388.53L610.92 381.42Q610.92 379.14 610.26 377.82Q609.60 376.50 607.86 376.50L607.86 376.50Q607.11 376.50 606.46 376.77Q605.82 377.04 605.32 377.50Q604.83 377.97 604.47 378.56Q604.11 379.14 603.90 379.77L603.90 379.77L603.90 388.53Q604.83 388.71 605.70 389.25L605.70 389.25L605.70 390L599.22 390L599.22 389.25Q599.97 388.86 601.20 388.53L601.20 388.53L601.20 376.74L599.22 376.50L599.22 375.72Q600 375.39 601.02 375.12Q602.04 374.85 603.15 374.64L603.15 374.64L603.90 374.64L603.90 378L603.93 378Q604.56 376.62 605.75 375.63Q606.93 374.64 608.61 374.64L608.61 374.64Q609.81 374.64 610.75 374.93Q611.70 375.21 612.33 375.93Q612.96 376.65 613.29 377.87Q613.62 379.08 613.62 380.94L613.62 380.94L613.62 388.53Q614.82 388.74 615.60 389.25L615.60 389.25ZM629.07 387.42L629.49 387.90Q629.25 388.41 628.74 388.86Q628.23 389.31 627.57 389.64Q626.91 389.97 626.13 390.17Q625.35 390.36 624.54 390.36L624.54 390.36Q622.77 390.36 621.42 389.81Q620.07 389.25 619.17 388.21Q618.27 387.18 617.81 385.74Q617.34 384.30 617.34 382.50L617.34 382.50Q617.34 378.66 619.11 376.65Q620.88 374.64 624.12 374.64L624.12 374.64Q625.17 374.64 626.19 374.93Q627.21 375.21 628.00 375.87Q628.80 376.53 629.29 377.63Q629.79 378.72 629.79 380.34L629.79 380.34Q629.79 380.85 629.75 381.38Q629.70 381.90 629.58 382.50L629.58 382.50L620.22 382.50Q620.22 383.76 620.53 384.86Q620.85 385.95 621.48 386.76Q622.11 387.57 623.07 388.04Q624.03 388.50 625.32 388.50L625.32 388.50Q626.37 388.50 627.45 388.20Q628.53 387.90 629.07 387.42L629.07 387.42ZM624 375.96L624 375.96Q622.29 375.96 621.39 377.12Q620.49 378.27 620.31 381.18L620.31 381.18L626.91 381.18Q626.94 380.91 626.96 380.65Q626.97 380.40 626.97 380.16L626.97 380.16Q626.97 378.24 626.25 377.10Q625.53 375.96 624 375.96ZM633.33 382.50L633.33 380.61L641.79 380.61L641.79 382.50L633.33 382.50ZM653.13 367.44L653.13 367.44Q653.40 367.44 653.76 367.47Q654.12 367.50 654.51 367.55Q654.90 367.59 655.26 367.67Q655.62 367.74 655.89 367.83L655.89 367.83Q655.80 368.82 655.63 369.68Q655.47 370.53 655.23 371.22L655.23 371.22L654.48 371.22L653.16 368.64Q652.29 368.64 651.68 368.82Q651.06 369 650.66 369.51Q650.25 370.02 650.06 370.98Q649.86 371.94 649.86 373.50L649.86 373.50L649.86 375L653.31 375L653.31 376.50L649.86 376.50L649.86 388.53Q651.42 388.71 652.74 389.25L652.74 389.25L652.74 390L645.18 390L645.18 389.25Q646.11 388.71 647.16 388.53L647.16 388.53L647.16 376.50L644.88 376.50L644.88 375.72Q645.93 375.06 647.16 374.73L647.16 374.73L647.16 373.68Q647.16 371.82 647.61 370.61Q648.06 369.39 648.87 368.69Q649.68 367.98 650.78 367.71Q651.87 367.44 653.13 367.44ZM662.10 389.25L662.10 390L655.44 390L655.44 389.25Q655.89 389.01 656.37 388.85Q656.85 388.68 657.42 388.53L657.42 388.53L657.42 376.74L655.44 376.50L655.44 375.72Q656.31 375.36 657.33 375.09Q658.35 374.82 659.37 374.64L659.37 374.64L660.12 374.64L660.12 388.53Q660.72 388.68 661.20 388.85Q661.68 389.01 662.10 389.25L662.10 389.25ZM656.85 369.90L656.85 369.90Q656.85 369.09 657.38 368.61Q657.90 368.13 658.77 368.13L658.77 368.13Q659.64 368.13 660.15 368.61Q660.66 369.09 660.66 369.90L660.66 369.90Q660.66 370.71 660.15 371.18Q659.64 371.64 658.77 371.64L658.77 371.64Q657.90 371.64 657.38 371.18Q656.85 370.71 656.85 369.90ZM674.55 377.25L670.56 377.25Q670.23 377.43 669.74 377.99Q669.24 378.54 668.85 379.62L668.85 379.62L668.85 388.53Q669.45 388.59 670.05 388.75Q670.65 388.92 671.25 389.25L671.25 389.25L671.25 390L664.17 390L664.17 389.25Q664.71 388.95 665.19 388.80Q665.67 388.65 666.15 388.53L666.15 388.53L666.15 376.74L664.17 376.50L664.17 375.72Q665.13 375.30 666.15 375.05Q667.17 374.79 668.10 374.64L668.10 374.64L668.85 374.64L668.85 377.82L668.97 377.82Q669.24 377.22 669.74 376.62Q670.23 376.02 670.88 375.54Q671.52 375.06 672.28 374.81Q673.05 374.55 673.86 374.64L673.86 374.64Q674.07 375.03 674.24 375.50Q674.40 375.96 674.55 376.47L674.55 376.47L674.55 377.25ZM683.61 386.58L683.61 386.58Q683.61 385.74 683.09 385.15Q682.56 384.57 681.75 384.06Q680.94 383.55 680.02 383.07Q679.11 382.59 678.30 381.94Q677.49 381.30 676.97 380.46Q676.44 379.62 676.44 378.39L676.44 378.39Q676.44 377.58 676.81 376.89Q677.19 376.20 677.82 375.70Q678.45 375.21 679.29 374.93Q680.13 374.64 681.09 374.64L681.09 374.64Q682.71 374.64 683.75 374.82Q684.78 375 685.74 375.33L685.74 375.33Q685.62 376.29 685.46 377.26Q685.29 378.24 684.99 379.26L684.99 379.26L684.24 379.26L683.10 376.20Q682.74 376.05 682.29 376.00Q681.84 375.96 681.36 375.96L681.36 375.96Q680.82 375.96 680.41 376.15Q680.01 376.35 679.73 376.65Q679.44 376.95 679.29 377.34Q679.14 377.73 679.14 378.12L679.14 378.12Q679.14 378.93 679.66 379.51Q680.19 380.10 681 380.60Q681.81 381.09 682.73 381.57Q683.64 382.05 684.45 382.65Q685.26 383.25 685.78 384.05Q686.31 384.84 686.31 385.95L686.31 385.95Q686.31 386.97 685.88 387.78Q685.44 388.59 684.67 389.16Q683.91 389.73 682.90 390.05Q681.90 390.36 680.76 390.36L680.76 390.36Q679.47 390.36 678.39 390.13Q677.31 389.91 676.14 389.49L676.14 389.49Q676.20 388.41 676.41 387.40Q676.62 386.40 676.95 385.47L676.95 385.47L677.70 385.47L679.02 388.74Q679.35 388.98 679.81 389.01Q680.28 389.04 680.67 389.04L680.67 389.04Q681.99 389.04 682.80 388.32Q683.61 387.60 683.61 386.58ZM688.20 376.50L688.20 375.72Q689.34 375 690.60 374.70L690.60 374.70L690.60 372.15Q690.99 371.82 691.51 371.56Q692.04 371.31 692.55 371.07L692.55 371.07L693.30 371.07L693.30 375L697.80 375L697.80 376.50L693.30 376.50L693.30 385.20Q693.30 387 693.87 387.75Q694.44 388.50 695.58 388.50L695.58 388.50Q696.12 388.50 696.93 388.43Q697.74 388.35 698.31 388.14L698.31 388.14L698.52 388.59Q698.28 388.86 697.85 389.16Q697.41 389.46 696.86 389.73Q696.30 390 695.64 390.18Q694.98 390.36 694.29 390.36L694.29 390.36Q692.49 390.36 691.54 389.34Q690.60 388.32 690.60 386.04L690.60 386.04L690.60 376.50L688.20 376.50ZM717.48 377.25L713.49 377.25Q713.16 377.43 712.66 377.99Q712.17 378.54 711.78 379.62L711.78 379.62L711.78 388.53Q712.38 388.59 712.98 388.75Q713.58 388.92 714.18 389.25L714.18 389.25L714.18 390L707.10 390L707.10 389.25Q707.64 388.95 708.12 388.80Q708.60 388.65 709.08 388.53L709.08 388.53L709.08 376.74L707.10 376.50L707.10 375.72Q708.06 375.30 709.08 375.05Q710.10 374.79 711.03 374.64L711.03 374.64L711.78 374.64L711.78 377.82L711.90 377.82Q712.17 377.22 712.66 376.62Q713.16 376.02 713.80 375.54Q714.45 375.06 715.21 374.81Q715.98 374.55 716.79 374.64L716.79 374.64Q717 375.03 717.16 375.50Q717.33 375.96 717.48 376.47L717.48 376.47L717.48 377.25ZM730.65 387.42L731.07 387.90Q730.83 388.41 730.32 388.86Q729.81 389.31 729.15 389.64Q728.49 389.97 727.71 390.17Q726.93 390.36 726.12 390.36L726.12 390.36Q724.35 390.36 723.00 389.81Q721.65 389.25 720.75 388.21Q719.85 387.18 719.38 385.74Q718.92 384.30 718.92 382.50L718.92 382.50Q718.92 378.66 720.69 376.65Q722.46 374.64 725.70 374.64L725.70 374.64Q726.75 374.64 727.77 374.93Q728.79 375.21 729.58 375.87Q730.38 376.53 730.87 377.63Q731.37 378.72 731.37 380.34L731.37 380.34Q731.37 380.85 731.32 381.38Q731.28 381.90 731.16 382.50L731.16 382.50L721.80 382.50Q721.80 383.76 722.11 384.86Q722.43 385.95 723.06 386.76Q723.69 387.57 724.65 388.04Q725.61 388.50 726.90 388.50L726.90 388.50Q727.95 388.50 729.03 388.20Q730.11 387.90 730.65 387.42L730.65 387.42ZM725.58 375.96L725.58 375.96Q723.87 375.96 722.97 377.12Q722.07 378.27 721.89 381.18L721.89 381.18L728.49 381.18Q728.52 380.91 728.53 380.65Q728.55 380.40 728.55 380.16L728.55 380.16Q728.55 378.24 727.83 377.10Q727.11 375.96 725.58 375.96ZM745.08 386.07L745.08 386.07Q745.08 386.73 745.11 387.21Q745.14 387.69 745.17 388.23L745.17 388.23L747.24 388.53L747.24 389.16Q746.49 389.55 745.57 389.85Q744.66 390.15 743.82 390.30L743.82 390.30L743.07 390.30Q742.77 389.61 742.71 388.79Q742.65 387.96 742.62 386.97L742.62 386.97L742.47 386.97Q742.35 387.57 742.00 388.19Q741.66 388.80 741.11 389.28Q740.55 389.76 739.80 390.06Q739.05 390.36 738.09 390.36L738.09 390.36Q736.26 390.36 735.11 389.25Q733.95 388.14 733.95 386.34L733.95 386.34Q733.95 384.96 734.50 384.07Q735.06 383.19 736.14 382.68Q737.22 382.17 738.81 381.94Q740.40 381.72 742.50 381.60L742.50 381.60Q742.62 380.31 742.57 379.27Q742.53 378.24 742.25 377.50Q741.96 376.77 741.40 376.37Q740.85 375.96 739.95 375.96L739.95 375.96Q739.53 375.96 739.00 376.00Q738.48 376.05 737.97 376.26L737.97 376.26L736.56 379.86L735.78 379.86Q735.48 378.96 735.25 378Q735.03 377.04 734.97 376.11L734.97 376.11Q736.11 375.42 737.50 375.03Q738.90 374.64 740.61 374.64L740.61 374.64Q742.14 374.64 743.05 375.07Q743.97 375.51 744.45 376.20Q744.93 376.89 745.08 377.73Q745.23 378.57 745.23 379.41L745.23 379.41Q745.23 381.21 745.15 382.88Q745.08 384.54 745.08 386.07ZM739.29 388.50L739.29 388.50Q740.04 388.50 740.61 388.20Q741.18 387.90 741.57 387.48Q741.96 387.06 742.20 386.63Q742.44 386.19 742.53 385.89L742.53 385.89L742.53 382.74Q740.79 382.74 739.68 382.92Q738.57 383.10 737.94 383.49Q737.31 383.88 737.07 384.46Q736.83 385.05 736.83 385.80L736.83 385.80Q736.83 387.09 737.49 387.80Q738.15 388.50 739.29 388.50ZM759.24 387.03L759.12 387.03Q758.97 387.69 758.61 388.29Q758.25 388.89 757.72 389.36Q757.20 389.82 756.52 390.09Q755.85 390.36 755.07 390.36L755.07 390.36Q752.10 390.36 750.63 388.47Q749.16 386.58 749.16 382.59L749.16 382.59Q749.16 378.75 751.03 376.74Q752.91 374.73 756.09 374.73L756.09 374.73Q757.20 374.73 757.83 374.83Q758.46 374.94 759.21 375.21L759.21 375.21L759.21 369.54L756.93 369.30L756.93 368.52Q757.80 368.16 758.95 367.89Q760.11 367.62 761.16 367.44L761.16 367.44L761.91 367.44L761.91 388.29L763.89 388.53L763.89 389.16Q763.02 389.58 762.09 389.88Q761.16 390.18 760.26 390.30L760.26 390.30L759.51 390.30L759.24 387.03ZM755.67 388.50L755.67 388.50Q757.14 388.50 758.01 387.57Q758.88 386.64 759.21 385.05L759.21 385.05L759.21 376.59Q758.70 376.29 758.01 376.17Q757.32 376.05 756.24 376.05L756.24 376.05Q754.20 376.05 753.12 377.83Q752.04 379.62 752.04 382.59L752.04 382.59Q752.04 383.82 752.25 384.88Q752.46 385.95 752.91 386.76Q753.36 387.57 754.03 388.04Q754.71 388.50 755.67 388.50ZM772.47 389.25L772.47 390L765.81 390L765.81 389.25Q766.26 389.01 766.74 388.85Q767.22 388.68 767.79 388.53L767.79 388.53L767.79 376.74L765.81 376.50L765.81 375.72Q766.68 375.36 767.70 375.09Q768.72 374.82 769.74 374.64L769.74 374.64L770.49 374.64L770.49 388.53Q771.09 388.68 771.57 388.85Q772.05 389.01 772.47 389.25L772.47 389.25ZM767.22 369.90L767.22 369.90Q767.22 369.09 767.74 368.61Q768.27 368.13 769.14 368.13L769.14 368.13Q770.01 368.13 770.52 368.61Q771.03 369.09 771.03 369.90L771.03 369.90Q771.03 370.71 770.52 371.18Q770.01 371.64 769.14 371.64L769.14 371.64Q768.27 371.64 767.74 371.18Q767.22 370.71 767.22 369.90ZM790.92 389.25L790.92 390L784.47 390L784.47 389.25Q785.28 388.83 786.24 388.53L786.24 388.53L786.24 381.42Q786.24 379.14 785.58 377.82Q784.92 376.50 783.18 376.50L783.18 376.50Q782.43 376.50 781.78 376.77Q781.14 377.04 780.64 377.50Q780.15 377.97 779.79 378.56Q779.43 379.14 779.22 379.77L779.22 379.77L779.22 388.53Q780.15 388.71 781.02 389.25L781.02 389.25L781.02 390L774.54 390L774.54 389.25Q775.29 388.86 776.52 388.53L776.52 388.53L776.52 376.74L774.54 376.50L774.54 375.72Q775.32 375.39 776.34 375.12Q777.36 374.85 778.47 374.64L778.47 374.64L779.22 374.64L779.22 378L779.25 378Q779.88 376.62 781.06 375.63Q782.25 374.64 783.93 374.64L783.93 374.64Q785.13 374.64 786.07 374.93Q787.02 375.21 787.65 375.93Q788.28 376.65 788.61 377.87Q788.94 379.08 788.94 380.94L788.94 380.94L788.94 388.53Q790.14 388.74 790.92 389.25L790.92 389.25ZM798.84 374.64L798.84 374.64Q800.46 374.64 801.57 374.95Q802.68 375.27 803.43 375.93L803.43 375.93Q805.20 374.73 807.12 374.19L807.12 374.19Q807.36 374.52 807.46 375Q807.57 375.48 807.57 375.90L807.57 375.90L807.18 376.62L804.03 376.62Q804.78 377.70 804.78 379.47L804.78 379.47Q804.78 381.63 803.26 382.98Q801.75 384.33 798.84 384.33L798.84 384.33Q798.27 384.33 797.91 384.30Q797.55 384.27 797.10 384.21L797.10 384.21Q796.95 384.48 796.75 384.81Q796.56 385.14 796.56 385.50L796.56 385.50Q796.56 386.10 797.25 386.44Q797.94 386.79 798.97 387.06Q800.01 387.33 801.22 387.62Q802.44 387.90 803.49 388.39Q804.54 388.89 805.25 389.69Q805.95 390.48 805.98 391.74L805.98 391.74Q806.01 392.82 805.48 393.69Q804.96 394.56 804.03 395.14Q803.10 395.73 801.79 396.05Q800.49 396.36 798.93 396.36L798.93 396.36Q795.66 396.36 794.00 395.25Q792.33 394.14 792.33 392.46L792.33 392.46Q792.33 391.65 792.58 391.05Q792.84 390.45 793.32 390Q793.80 389.55 794.52 389.20Q795.24 388.86 796.17 388.56L796.17 388.56Q795.51 388.26 795.07 387.74Q794.64 387.21 794.64 386.46L794.64 386.46Q794.64 385.77 795.22 385.10Q795.81 384.42 796.41 384.03L796.41 384.03Q794.70 383.58 793.78 382.32Q792.87 381.06 792.87 379.47L792.87 379.47Q792.87 378.45 793.26 377.56Q793.65 376.68 794.40 376.02Q795.15 375.36 796.26 375Q797.37 374.64 798.84 374.64ZM803.28 392.43L803.28 392.43Q803.28 391.47 802.63 390.90Q801.99 390.33 801.03 389.97Q800.07 389.61 798.96 389.37Q797.85 389.13 796.89 388.83L796.89 388.83Q795.75 389.52 795.39 390.29Q795.03 391.05 795.03 391.86L795.03 391.86Q795.03 393.45 796.17 394.25Q797.31 395.04 799.47 395.04L799.47 395.04Q800.58 395.04 801.31 394.83Q802.05 394.62 802.48 394.27Q802.92 393.93 803.10 393.45Q803.28 392.97 803.28 392.43ZM795.57 379.47L795.57 379.47Q795.57 380.19 795.73 380.83Q795.90 381.48 796.27 381.96Q796.65 382.44 797.28 382.73Q797.91 383.01 798.84 383.01L798.84 383.01Q800.58 383.01 801.33 381.99Q802.08 380.97 802.08 379.47L802.08 379.47Q802.08 377.85 801.34 376.90Q800.61 375.96 798.84 375.96L798.84 375.96Q797.01 375.96 796.29 376.88Q795.57 377.79 795.57 379.47ZM826.80 386.07L826.80 386.07Q826.80 386.73 826.83 387.21Q826.86 387.69 826.89 388.23L826.89 388.23L828.96 388.53L828.96 389.16Q828.21 389.55 827.29 389.85Q826.38 390.15 825.54 390.30L825.54 390.30L824.79 390.30Q824.49 389.61 824.43 388.79Q824.37 387.96 824.34 386.97L824.34 386.97L824.19 386.97Q824.07 387.57 823.72 388.19Q823.38 388.80 822.82 389.28Q822.27 389.76 821.52 390.06Q820.77 390.36 819.81 390.36L819.81 390.36Q817.98 390.36 816.82 389.25Q815.67 388.14 815.67 386.34L815.67 386.34Q815.67 384.96 816.22 384.07Q816.78 383.19 817.86 382.68Q818.94 382.17 820.53 381.94Q822.12 381.72 824.22 381.60L824.22 381.60Q824.34 380.31 824.29 379.27Q824.25 378.24 823.96 377.50Q823.68 376.77 823.12 376.37Q822.57 375.96 821.67 375.96L821.67 375.96Q821.25 375.96 820.72 376.00Q820.20 376.05 819.69 376.26L819.69 376.26L818.28 379.86L817.50 379.86Q817.20 378.96 816.97 378Q816.75 377.04 816.69 376.11L816.69 376.11Q817.83 375.42 819.22 375.03Q820.62 374.64 822.33 374.64L822.33 374.64Q823.86 374.64 824.77 375.07Q825.69 375.51 826.17 376.20Q826.65 376.89 826.80 377.73Q826.95 378.57 826.95 379.41L826.95 379.41Q826.95 381.21 826.87 382.88Q826.80 384.54 826.80 386.07ZM821.01 388.50L821.01 388.50Q821.76 388.50 822.33 388.20Q822.90 387.90 823.29 387.48Q823.68 387.06 823.92 386.63Q824.16 386.19 824.25 385.89L824.25 385.89L824.25 382.74Q822.51 382.74 821.40 382.92Q820.29 383.10 819.66 383.49Q819.03 383.88 818.79 384.46Q818.55 385.05 818.55 385.80L818.55 385.80Q818.55 387.09 819.21 387.80Q819.87 388.50 821.01 388.50ZM837.24 395.25L837.24 396L830.58 396L830.58 395.25Q831.60 394.77 832.56 394.53L832.56 394.53L832.56 376.74L830.58 376.50L830.58 375.72Q831.54 375.30 832.54 375.05Q833.55 374.79 834.51 374.64L834.51 374.64L835.26 374.64L835.26 378L835.29 378Q835.89 376.47 836.97 375.56Q838.05 374.64 839.79 374.64L839.79 374.64Q842.46 374.64 843.93 376.41Q845.40 378.18 845.40 382.17L845.40 382.17Q845.40 384.06 844.90 385.59Q844.41 387.12 843.49 388.17Q842.58 389.22 841.27 389.79Q839.97 390.36 838.38 390.36L838.38 390.36Q837.27 390.36 836.64 390.23Q836.01 390.09 835.26 389.76L835.26 389.76L835.26 394.53Q835.74 394.59 836.22 394.75Q836.70 394.92 837.24 395.25L837.24 395.25ZM838.83 376.50L838.83 376.50Q837.36 376.50 836.49 377.43Q835.62 378.36 835.26 379.98L835.26 379.98L835.26 388.38Q835.80 388.71 836.47 388.88Q837.15 389.04 838.23 389.04L838.23 389.04Q839.22 389.04 840.01 388.53Q840.81 388.02 841.36 387.09Q841.92 386.16 842.22 384.92Q842.52 383.67 842.52 382.17L842.52 382.17Q842.52 380.94 842.32 379.90Q842.13 378.87 841.69 378.11Q841.26 377.34 840.55 376.92Q839.85 376.50 838.83 376.50ZM854.22 395.25L854.22 396L847.56 396L847.56 395.25Q848.58 394.77 849.54 394.53L849.54 394.53L849.54 376.74L847.56 376.50L847.56 375.72Q848.52 375.30 849.52 375.05Q850.53 374.79 851.49 374.64L851.49 374.64L852.24 374.64L852.24 378L852.27 378Q852.87 376.47 853.95 375.56Q855.03 374.64 856.77 374.64L856.77 374.64Q859.44 374.64 860.91 376.41Q862.38 378.18 862.38 382.17L862.38 382.17Q862.38 384.06 861.88 385.59Q861.39 387.12 860.47 388.17Q859.56 389.22 858.25 389.79Q856.95 390.36 855.36 390.36L855.36 390.36Q854.25 390.36 853.62 390.23Q852.99 390.09 852.24 389.76L852.24 389.76L852.24 394.53Q852.72 394.59 853.20 394.75Q853.68 394.92 854.22 395.25L854.22 395.25ZM855.81 376.50L855.81 376.50Q854.34 376.50 853.47 377.43Q852.60 378.36 852.24 379.98L852.24 379.98L852.24 388.38Q852.78 388.71 853.45 388.88Q854.13 389.04 855.21 389.04L855.21 389.04Q856.20 389.04 856.99 388.53Q857.79 388.02 858.34 387.09Q858.90 386.16 859.20 384.92Q859.50 383.67 859.50 382.17L859.50 382.17Q859.50 380.94 859.30 379.90Q859.11 378.87 858.67 378.11Q858.24 377.34 857.53 376.92Q856.83 376.50 855.81 376.50ZM880.08 367.44L880.08 367.44Q880.35 367.44 880.71 367.47Q881.07 367.50 881.46 367.55Q881.85 367.59 882.21 367.67Q882.57 367.74 882.84 367.83L882.84 367.83Q882.75 368.82 882.58 369.68Q882.42 370.53 882.18 371.22L882.18 371.22L881.43 371.22L880.11 368.64Q879.24 368.64 878.62 368.82Q878.01 369 877.60 369.51Q877.20 370.02 877.00 370.98Q876.81 371.94 876.81 373.50L876.81 373.50L876.81 375L880.26 375L880.26 376.50L876.81 376.50L876.81 388.53Q878.37 388.71 879.69 389.25L879.69 389.25L879.69 390L872.13 390L872.13 389.25Q873.06 388.71 874.11 388.53L874.11 388.53L874.11 376.50L871.83 376.50L871.83 375.72Q872.88 375.06 874.11 374.73L874.11 374.73L874.11 373.68Q874.11 371.82 874.56 370.61Q875.01 369.39 875.82 368.69Q876.63 367.98 877.72 367.71Q878.82 367.44 880.08 367.44ZM881.85 382.50L881.85 382.50Q881.85 380.61 882.34 379.15Q882.84 377.70 883.77 376.69Q884.70 375.69 886.00 375.17Q887.31 374.64 888.90 374.64L888.90 374.64Q890.76 374.64 892.11 375.21Q893.46 375.78 894.31 376.81Q895.17 377.85 895.57 379.29Q895.98 380.73 895.98 382.50L895.98 382.50Q895.98 386.28 894.06 388.32Q892.14 390.36 888.90 390.36L888.90 390.36Q887.10 390.36 885.78 389.81Q884.46 389.25 883.59 388.21Q882.72 387.18 882.28 385.73Q881.85 384.27 881.85 382.50ZM884.73 382.50L884.73 382.50Q884.73 383.85 884.98 385.05Q885.24 386.25 885.79 387.13Q886.35 388.02 887.25 388.53Q888.15 389.04 889.41 389.04L889.41 389.04Q891.03 389.04 892.06 387.45Q893.10 385.86 893.10 382.50L893.10 382.50Q893.10 381.12 892.84 379.94Q892.59 378.75 892.05 377.87Q891.51 376.98 890.67 376.47Q889.83 375.96 888.66 375.96L888.66 375.96Q886.89 375.96 885.81 377.55Q884.73 379.14 884.73 382.50ZM908.52 377.25L904.53 377.25Q904.20 377.43 903.70 377.99Q903.21 378.54 902.82 379.62L902.82 379.62L902.82 388.53Q903.42 388.59 904.02 388.75Q904.62 388.92 905.22 389.25L905.22 389.25L905.22 390L898.14 390L898.14 389.25Q898.68 388.95 899.16 388.80Q899.64 388.65 900.12 388.53L900.12 388.53L900.12 376.74L898.14 376.50L898.14 375.72Q899.10 375.30 900.12 375.05Q901.14 374.79 902.07 374.64L902.07 374.64L902.82 374.64L902.82 377.82L902.94 377.82Q903.21 377.22 903.70 376.62Q904.20 376.02 904.84 375.54Q905.49 375.06 906.25 374.81Q907.02 374.55 907.83 374.64L907.83 374.64Q908.04 375.03 908.20 375.50Q908.37 375.96 908.52 376.47L908.52 376.47L908.52 377.25ZM928.98 387.42L929.40 387.90Q929.16 388.41 928.65 388.86Q928.14 389.31 927.48 389.64Q926.82 389.97 926.04 390.17Q925.26 390.36 924.45 390.36L924.45 390.36Q922.68 390.36 921.33 389.81Q919.98 389.25 919.08 388.21Q918.18 387.18 917.71 385.74Q917.25 384.30 917.25 382.50L917.25 382.50Q917.25 378.66 919.02 376.65Q920.79 374.64 924.03 374.64L924.03 374.64Q925.08 374.64 926.10 374.93Q927.12 375.21 927.91 375.87Q928.71 376.53 929.20 377.63Q929.70 378.72 929.70 380.34L929.70 380.34Q929.70 380.85 929.65 381.38Q929.61 381.90 929.49 382.50L929.49 382.50L920.13 382.50Q920.13 383.76 920.44 384.86Q920.76 385.95 921.39 386.76Q922.02 387.57 922.98 388.04Q923.94 388.50 925.23 388.50L925.23 388.50Q926.28 388.50 927.36 388.20Q928.44 387.90 928.98 387.42L928.98 387.42ZM923.91 375.96L923.91 375.96Q922.20 375.96 921.30 377.12Q920.40 378.27 920.22 381.18L920.22 381.18L926.82 381.18Q926.85 380.91 926.86 380.65Q926.88 380.40 926.88 380.16L926.88 380.16Q926.88 378.24 926.16 377.10Q925.44 375.96 923.91 375.96ZM933.24 382.50L933.24 380.61L941.70 380.61L941.70 382.50L933.24 382.50ZM951.75 389.25L951.75 390L945.09 390L945.09 389.25Q945.54 389.01 946.02 388.85Q946.50 388.68 947.07 388.53L947.07 388.53L947.07 376.74L945.09 376.50L945.09 375.72Q945.96 375.36 946.98 375.09Q948.00 374.82 949.02 374.64L949.02 374.64L949.77 374.64L949.77 388.53Q950.37 388.68 950.85 388.85Q951.33 389.01 951.75 389.25L951.75 389.25ZM946.50 369.90L946.50 369.90Q946.50 369.09 947.02 368.61Q947.55 368.13 948.42 368.13L948.42 368.13Q949.29 368.13 949.80 368.61Q950.31 369.09 950.31 369.90L950.31 369.90Q950.31 370.71 949.80 371.18Q949.29 371.64 948.42 371.64L948.42 371.64Q947.55 371.64 947.02 371.18Q946.50 370.71 946.50 369.90ZM970.20 389.25L970.20 390L963.75 390L963.75 389.25Q964.56 388.83 965.52 388.53L965.52 388.53L965.52 381.42Q965.52 379.14 964.86 377.82Q964.20 376.50 962.46 376.50L962.46 376.50Q961.71 376.50 961.06 376.77Q960.42 377.04 959.92 377.50Q959.43 377.97 959.07 378.56Q958.71 379.14 958.50 379.77L958.50 379.77L958.50 388.53Q959.43 388.71 960.30 389.25L960.30 389.25L960.30 390L953.82 390L953.82 389.25Q954.57 388.86 955.80 388.53L955.80 388.53L955.80 376.74L953.82 376.50L953.82 375.72Q954.60 375.39 955.62 375.12Q956.64 374.85 957.75 374.64L957.75 374.64L958.50 374.64L958.50 378L958.53 378Q959.16 376.62 960.34 375.63Q961.53 374.64 963.21 374.64L963.21 374.64Q964.41 374.64 965.35 374.93Q966.30 375.21 966.93 375.93Q967.56 376.65 967.89 377.87Q968.22 379.08 968.22 380.94L968.22 380.94L968.22 388.53Q969.42 388.74 970.20 389.25L970.20 389.25ZM979.71 375.78L979.71 375L985.50 375L985.50 375.78Q984.93 376.02 984.37 376.20Q983.82 376.38 983.22 376.50L983.22 376.50Q982.77 377.10 982.18 377.79Q981.60 378.48 981.00 379.17Q980.40 379.86 979.84 380.46Q979.29 381.06 978.90 381.45L978.90 381.45Q979.35 382.05 979.99 382.90Q980.64 383.76 981.39 384.72Q982.14 385.68 982.93 386.67Q983.73 387.66 984.51 388.53L984.51 388.53L986.19 389.25L986.19 390L982.47 390L981.66 389.28Q980.07 387.30 979.02 385.75Q977.97 384.21 977.10 382.86L977.10 382.86L976.11 382.56L976.11 388.53Q977.10 388.71 978.06 389.25L978.06 389.25L978.06 390L971.43 390L971.43 389.25Q972.42 388.77 973.41 388.53L973.41 388.53L973.41 369.54L971.13 369.30L971.13 368.52Q971.97 368.13 973.14 367.89Q974.31 367.65 975.36 367.44L975.36 367.44L976.11 367.44L976.11 381.78L976.89 381.78Q977.37 381.24 977.94 380.58Q978.51 379.92 979.08 379.21Q979.65 378.51 980.19 377.82Q980.73 377.13 981.18 376.50L981.18 376.50Q980.43 376.29 979.71 375.78L979.71 375.78ZM993.93 376.50L993.93 375.72Q995.07 375 996.33 374.70L996.33 374.70L996.33 372.15Q996.72 371.82 997.24 371.56Q997.77 371.31 998.28 371.07L998.28 371.07L999.03 371.07L999.03 375L1003.53 375L1003.53 376.50L999.03 376.50L999.03 385.20Q999.03 387 999.60 387.75Q1000.17 388.50 1001.31 388.50L1001.31 388.50Q1001.85 388.50 1002.66 388.43Q1003.47 388.35 1004.04 388.14L1004.04 388.14L1004.25 388.59Q1004.01 388.86 1003.57 389.16Q1003.14 389.46 1002.58 389.73Q1002.03 390 1001.37 390.18Q1000.71 390.36 1000.02 390.36L1000.02 390.36Q998.22 390.36 997.27 389.34Q996.33 388.32 996.33 386.04L996.33 386.04L996.33 376.50L993.93 376.50ZM1016.91 386.07L1016.91 386.07Q1016.91 386.73 1016.94 387.21Q1016.97 387.69 1017.00 388.23L1017.00 388.23L1019.07 388.53L1019.07 389.16Q1018.32 389.55 1017.40 389.85Q1016.49 390.15 1015.65 390.30L1015.65 390.30L1014.90 390.30Q1014.60 389.61 1014.54 388.79Q1014.48 387.96 1014.45 386.97L1014.45 386.97L1014.30 386.97Q1014.18 387.57 1013.83 388.19Q1013.49 388.80 1012.93 389.28Q1012.38 389.76 1011.63 390.06Q1010.88 390.36 1009.92 390.36L1009.92 390.36Q1008.09 390.36 1006.93 389.25Q1005.78 388.14 1005.78 386.34L1005.78 386.34Q1005.78 384.96 1006.33 384.07Q1006.89 383.19 1007.97 382.68Q1009.05 382.17 1010.64 381.94Q1012.23 381.72 1014.33 381.60L1014.33 381.60Q1014.45 380.31 1014.40 379.27Q1014.36 378.24 1014.07 377.50Q1013.79 376.77 1013.23 376.37Q1012.68 375.96 1011.78 375.96L1011.78 375.96Q1011.36 375.96 1010.83 376.00Q1010.31 376.05 1009.80 376.26L1009.80 376.26L1008.39 379.86L1007.61 379.86Q1007.31 378.96 1007.08 378Q1006.86 377.04 1006.80 376.11L1006.80 376.11Q1007.94 375.42 1009.33 375.03Q1010.73 374.64 1012.44 374.64L1012.44 374.64Q1013.97 374.64 1014.88 375.07Q1015.80 375.51 1016.28 376.20Q1016.76 376.89 1016.91 377.73Q1017.06 378.57 1017.06 379.41L1017.06 379.41Q1017.06 381.21 1016.98 382.88Q1016.91 384.54 1016.91 386.07ZM1011.12 388.50L1011.12 388.50Q1011.87 388.50 1012.44 388.20Q1013.01 387.90 1013.40 387.48Q1013.79 387.06 1014.03 386.63Q1014.27 386.19 1014.36 385.89L1014.36 385.89L1014.36 382.74Q1012.62 382.74 1011.51 382.92Q1010.40 383.10 1009.77 383.49Q1009.14 383.88 1008.90 384.46Q1008.66 385.05 1008.66 385.80L1008.66 385.80Q1008.66 387.09 1009.32 387.80Q1009.98 388.50 1011.12 388.50ZM1022.07 389.13L1022.07 369.54L1019.79 369.30L1019.79 368.52Q1020.72 368.13 1021.87 367.89Q1023.03 367.65 1024.02 367.44L1024.02 367.44L1024.77 367.44L1024.77 377.97L1024.83 377.97Q1025.34 376.44 1026.55 375.54Q1027.77 374.64 1029.24 374.64L1029.24 374.64Q1031.97 374.64 1033.42 376.50Q1034.88 378.36 1034.88 382.23L1034.88 382.23Q1034.88 386.19 1032.88 388.23Q1030.89 390.27 1027.14 390.27L1027.14 390.27Q1026.39 390.27 1025.64 390.17Q1024.89 390.06 1024.20 389.91Q1023.51 389.76 1022.95 389.55Q1022.40 389.34 1022.07 389.13L1022.07 389.13ZM1028.43 376.50L1028.43 376.50Q1026.99 376.50 1026.09 377.48Q1025.19 378.45 1024.77 379.95L1024.77 379.95L1024.77 388.32Q1025.31 388.62 1026.09 388.79Q1026.87 388.95 1027.74 388.95L1027.74 388.95Q1029.72 388.95 1030.86 387.23Q1032.00 385.50 1032.00 382.23L1032.00 382.23Q1032.00 381.06 1031.80 380.01Q1031.61 378.96 1031.17 378.18Q1030.74 377.40 1030.06 376.95Q1029.39 376.50 1028.43 376.50ZM1044 389.25L1044 390L1037.34 390L1037.34 389.25Q1038.33 388.77 1039.32 388.53L1039.32 388.53L1039.32 369.54L1037.04 369.30L1037.04 368.52Q1037.82 368.16 1038.99 367.89Q1040.16 367.62 1041.27 367.44L1041.27 367.44L1042.02 367.44L1042.02 388.53Q1043.01 388.77 1044 389.25L1044 389.25ZM1058.10 387.42L1058.52 387.90Q1058.28 388.41 1057.77 388.86Q1057.26 389.31 1056.60 389.64Q1055.94 389.97 1055.16 390.17Q1054.38 390.36 1053.57 390.36L1053.57 390.36Q1051.80 390.36 1050.45 389.81Q1049.10 389.25 1048.20 388.21Q1047.30 387.18 1046.83 385.74Q1046.37 384.30 1046.37 382.50L1046.37 382.50Q1046.37 378.66 1048.14 376.65Q1049.91 374.64 1053.15 374.64L1053.15 374.64Q1054.20 374.64 1055.22 374.93Q1056.24 375.21 1057.03 375.87Q1057.83 376.53 1058.32 377.63Q1058.82 378.72 1058.82 380.34L1058.82 380.34Q1058.82 380.85 1058.77 381.38Q1058.73 381.90 1058.61 382.50L1058.61 382.50L1049.25 382.50Q1049.25 383.76 1049.56 384.86Q1049.88 385.95 1050.51 386.76Q1051.14 387.57 1052.10 388.04Q1053.06 388.50 1054.35 388.50L1054.35 388.50Q1055.40 388.50 1056.48 388.20Q1057.56 387.90 1058.10 387.42L1058.10 387.42ZM1053.03 375.96L1053.03 375.96Q1051.32 375.96 1050.42 377.12Q1049.52 378.27 1049.34 381.18L1049.34 381.18L1055.94 381.18Q1055.97 380.91 1055.98 380.65Q1056.00 380.40 1056.00 380.16L1056.00 380.16Q1056.00 378.24 1055.28 377.10Q1054.56 375.96 1053.03 375.96ZM1060.68 376.50L1060.68 375.72Q1061.82 375 1063.08 374.70L1063.08 374.70L1063.08 372.15Q1063.47 371.82 1063.99 371.56Q1064.52 371.31 1065.03 371.07L1065.03 371.07L1065.78 371.07L1065.78 375L1070.28 375L1070.28 376.50L1065.78 376.50L1065.78 385.20Q1065.78 387 1066.35 387.75Q1066.92 388.50 1068.06 388.50L1068.06 388.50Q1068.60 388.50 1069.41 388.43Q1070.22 388.35 1070.79 388.14L1070.79 388.14L1071.00 388.59Q1070.76 388.86 1070.32 389.16Q1069.89 389.46 1069.33 389.73Q1068.78 390 1068.12 390.18Q1067.46 390.36 1066.77 390.36L1066.77 390.36Q1064.97 390.36 1064.02 389.34Q1063.08 388.32 1063.08 386.04L1063.08 386.04L1063.08 376.50L1060.68 376.50ZM1080.21 386.58L1080.21 386.58Q1080.21 385.74 1079.68 385.15Q1079.16 384.57 1078.35 384.06Q1077.54 383.55 1076.63 383.07Q1075.71 382.59 1074.90 381.94Q1074.09 381.30 1073.56 380.46Q1073.04 379.62 1073.04 378.39L1073.04 378.39Q1073.04 377.58 1073.41 376.89Q1073.79 376.20 1074.42 375.70Q1075.05 375.21 1075.89 374.93Q1076.73 374.64 1077.69 374.64L1077.69 374.64Q1079.31 374.64 1080.34 374.82Q1081.38 375 1082.34 375.33L1082.34 375.33Q1082.22 376.29 1082.05 377.26Q1081.89 378.24 1081.59 379.26L1081.59 379.26L1080.84 379.26L1079.70 376.20Q1079.34 376.05 1078.89 376.00Q1078.44 375.96 1077.96 375.96L1077.96 375.96Q1077.42 375.96 1077.01 376.15Q1076.61 376.35 1076.32 376.65Q1076.04 376.95 1075.89 377.34Q1075.74 377.73 1075.74 378.12L1075.74 378.12Q1075.74 378.93 1076.26 379.51Q1076.79 380.10 1077.60 380.60Q1078.41 381.09 1079.32 381.57Q1080.24 382.05 1081.05 382.65Q1081.86 383.25 1082.38 384.05Q1082.91 384.84 1082.91 385.95L1082.91 385.95Q1082.91 386.97 1082.47 387.78Q1082.04 388.59 1081.27 389.16Q1080.51 389.73 1079.50 390.05Q1078.50 390.36 1077.36 390.36L1077.36 390.36Q1076.07 390.36 1074.99 390.13Q1073.91 389.91 1072.74 389.49L1072.74 389.49Q1072.80 388.41 1073.01 387.40Q1073.22 386.40 1073.55 385.47L1073.55 385.47L1074.30 385.47L1075.62 388.74Q1075.95 388.98 1076.41 389.01Q1076.88 389.04 1077.27 389.04L1077.27 389.04Q1078.59 389.04 1079.40 388.32Q1080.21 387.60 1080.21 386.58ZM1086.48 388.29L1086.48 388.29Q1086.48 387.39 1087.05 386.85Q1087.62 386.31 1088.52 386.31L1088.52 386.31Q1089.45 386.31 1090.02 386.85Q1090.59 387.39 1090.59 388.29L1090.59 388.29Q1090.59 389.16 1090.02 389.70Q1089.45 390.24 1088.52 390.24L1088.52 390.24Q1087.62 390.24 1087.05 389.70Q1086.48 389.16 1086.48 388.29Z"/>
</svg>
